<?xml version="1.0" encoding="UTF-8" standalone="no"?>
<!-- Created with Inkscape (http://www.inkscape.org/) -->

<svg
   xmlns:dc="http://purl.org/dc/elements/1.1/"
   xmlns:cc="http://creativecommons.org/ns#"
   xmlns:rdf="http://www.w3.org/1999/02/22-rdf-syntax-ns#"
   xmlns:svg="http://www.w3.org/2000/svg"
   xmlns="http://www.w3.org/2000/svg"
   xmlns:sodipodi="http://sodipodi.sourceforge.net/DTD/sodipodi-0.dtd"
   xmlns:inkscape="http://www.inkscape.org/namespaces/inkscape"
   width="210mm"
   height="297mm"
   viewBox="0 0 210 297"
   version="1.1"
   id="svg8"
   sodipodi:docname="creativelizard_logo_flat.svg"
   inkscape:version="0.92.2 (30a58d1, 2017-08-07)">
  <defs
     id="defs2">
    <inkscape:path-effect
       effect="bspline"
       id="path-effect1154"
       is_visible="true"
       weight="33.333333"
       steps="2"
       helper_size="0"
       apply_no_weight="true"
       apply_with_weight="true"
       only_selected="false" />
    <inkscape:path-effect
       effect="bspline"
       id="path-effect890"
       is_visible="true"
       weight="33.333333"
       steps="2"
       helper_size="0"
       apply_no_weight="true"
       apply_with_weight="true"
       only_selected="false" />
    <inkscape:path-effect
       effect="bspline"
       id="path-effect883"
       is_visible="true"
       weight="33.333333"
       steps="2"
       helper_size="0"
       apply_no_weight="true"
       apply_with_weight="true"
       only_selected="false" />
    <inkscape:path-effect
       effect="bspline"
       id="path-effect877"
       is_visible="true"
       weight="33.333333"
       steps="2"
       helper_size="0"
       apply_no_weight="true"
       apply_with_weight="true"
       only_selected="false" />
  </defs>
  <sodipodi:namedview
     id="base"
     pagecolor="#ffffff"
     bordercolor="#666666"
     borderopacity="1.0"
     inkscape:pageopacity="0.0"
     inkscape:pageshadow="2"
     inkscape:zoom="0.49497475"
     inkscape:cx="366.34373"
     inkscape:cy="380.10971"
     inkscape:document-units="mm"
     inkscape:current-layer="layer1"
     showgrid="false"
     inkscape:window-width="1879"
     inkscape:window-height="1056"
     inkscape:window-x="41"
     inkscape:window-y="24"
     inkscape:window-maximized="1" />
  <metadata
     id="metadata5">
    <rdf:RDF>
      <cc:Work
         rdf:about="">
        <dc:format>image/svg+xml</dc:format>
        <dc:type
           rdf:resource="http://purl.org/dc/dcmitype/StillImage" />
      </cc:Work>
    </rdf:RDF>
  </metadata>
  <g
     inkscape:label="Layer 1"
     inkscape:groupmode="layer"
     id="layer1">
    <path
       style="opacity:1;fill:#fff;fill-opacity:1;fill-rule:nonzero;stroke:none;stroke-width:0;stroke-miterlimit:4;stroke-dasharray:none;stroke-opacity:1"
       d="m 123.21,27.382087 c -4.44363,0.05384 -7.98188,2.125467 -10.37611,6.127793 -0.22326,0.373213 -0.42833,0.751572 -0.61908,1.133263 h 6.36757 c 0.0129,-0.01439 0.0248,-0.02958 0.0377,-0.04392 0.73403,-0.812487 1.93872,-1.676691 2.67684,-1.920298 4.47593,-1.47719 11.1755,2.201381 13.6586,7.499284 0.88915,1.89706 1.0122,2.625415 1.0082,5.941758 -0.004,3.285059 -0.13374,4.051771 -0.99115,5.858555 -1.46521,3.087571 -3.09645,5.106176 -5.63686,6.976319 -1.94141,1.429176 -3.73513,2.487719 -6.08646,3.413228 v 7.418152 c 12.26896,-4.455874 18.59034,-12.040163 18.57251,-22.328351 -0.0176,-10.172477 -4.99629,-17.15286 -13.87512,-19.453595 -1.67355,-0.433649 -3.25545,-0.640128 -4.73666,-0.622184 z m 0.0393,42.40413 c -0.59834,0.217308 -1.20583,0.429639 -1.83244,0.632003 -5.03419,1.62579 -6.62933,2.043305 -16.25276,4.251936 -8.821428,2.024576 -14.383777,3.619479 -18.41386,5.490622 V 123.9643 c -7.459562,-4.93077 -10.436056,-12.39895 -11.031884,-13.56403 -2.68705,-5.25425 -3.299275,-10.15381 -1.934766,-15.488975 1.04983,-4.10482 2.393606,-6.40011 5.670455,-9.68726 2.049695,-2.05614 4.229714,-3.639507 7.296195,-5.063257 v -8.9023 c -2.32396,0.852636 -4.488511,1.800781 -6.7076,2.911451 -7.71965,3.863729 -11.082816,8.034682 -14.111285,17.500226 -0.632579,1.97713 -1.363596,5.30629 -1.624705,7.39851 -0.678749,5.438685 -0.229082,7.826945 3.374987,17.921905 3.130368,9.30671 5.195171,17.46015 7.039364,22.27357 -20.623257,21.14055 -45.066063,49.33755 -45.090788,75.62226 -3.5e-5,41.62554 33.744003,54.73234 75.369557,54.73258 41.62576,3e-5 75.37011,-13.10682 75.37008,-54.73258 -0.0157,-11.79468 -4.72724,-23.75135 -11.8277,-35.30896 -1.20453,1.48098 -2.62992,2.92122 -3.67006,3.7853 -1.51036,1.25473 -4.35958,2.63004 -6.62079,3.19619 -1.00432,0.25146 -4.15405,0.729 -6.99957,1.06143 -6.76846,0.79073 -9.30021,1.53773 -11.18381,3.30006 -1.2817,1.19916 -1.13365,2.36883 0.55914,4.42505 0.76764,0.93247 1.30692,1.83856 1.19889,2.01331 -0.10796,0.17469 -0.76695,0.31781 -1.464,0.31782 -1.1547,-1e-5 -1.42327,-0.16502 -3.02565,-1.84899 -2.24043,-2.35445 -2.66602,-2.30435 -3.1595,0.36949 -0.33402,1.80971 -1.13361,3.91449 -1.48673,3.91449 -0.0736,0 -0.27475,-0.26486 -0.44803,-0.5886 -0.41074,-0.76747 -0.3989,-2.23941 0.0351,-4.40128 0.29429,-1.46559 0.27802,-1.81689 -0.10129,-2.19625 -0.39896,-0.39893 -0.75842,-0.29073 -3.09645,0.93225 -2.76651,1.44711 -3.84835,1.70492 -3.84835,0.91674 0,-0.93637 1.07149,-2.05251 3.92948,-4.09433 1.60525,-1.14684 4.25469,-3.30678 5.88698,-4.80022 3.73255,-3.41509 5.08358,-4.15493 8.7483,-4.7873 3.24022,-0.55911 11.26646,-1.7223 11.66958,-2.86856 0.48267,-1.37248 -6.6641,-1.78576 -8.02122,-2.19212 -1.01513,-0.30413 -2.02679,-0.2488 -6.15466,0.33332 -3.83812,0.54126 -6.53672,0.70964 -12.09694,0.75654 -7.97412,0.0674 -8.57915,0.18435 -11.37295,2.1916 -0.85087,0.61128 -2.30495,1.46585 -3.23081,1.90014 -1.55319,0.72854 -1.97753,0.78647 -5.48752,0.74517 -5.84819,-0.0688 -15.467428,-2.11671 -19.986376,-4.25452 -1.873404,-0.88624 -3.145142,-2.2678 -3.136242,-3.40806 0.01139,-1.35739 1.391317,-4.83725 3.207039,-8.08581 3.904379,-6.98548 8.149055,-11.76159 12.301579,-13.83998 2.20587,-1.10409 2.76403,-1.25677 4.58369,-1.25677 1.79822,0 2.19767,0.10683 3.03134,0.80822 0.52824,0.44452 1.37358,1.54042 1.87844,2.43499 l 0.91778,1.62626 h 2.82359 c 1.98589,0 3.68652,-0.21952 5.73454,-0.73897 5.25228,-1.33237 8.59221,-3.48932 11.32127,-7.31377 3.48611,-4.88535 -1.68878,-12.97957 -1.68878,-12.97957 l -6.8399,-7.76594 c -2.91119,1.64165 -2.65848,-0.38566 -7.25227,0.0424 -8.50025,0.79195 -10.37747,1.94775 -7.39076,4.13567 3.27917,2.40227 2.32207,3.12068 2.0252,3.30057 -0.29697,0.1799 -1.86681,0.4365 -4.49068,-1.97353 -2.42256,-2.22504 -2.22706,-2.47902 -2.15956,1.31465 0.0159,0.8348 -0.49281,2.44447 -1.12758,3.57756 l -0.84801,0.54932 -0.7736,-0.41599 c -0.25783,-1.06017 -0.39445,-2.52104 -0.30385,-3.2458 0.39114,-3.12691 0.2107,-4.36754 -0.60927,-4.177 -0.43969,0.10224 -0.743376,0.42681 -0.674375,0.7214 -0.678945,8.57424 -2.77395,8.70457 -2.741954,7.50032 l 0.14211,-5.37849 c 0.03006,-1.13065 -0.417211,-4.34163 0.4284,-5.53351 1.599936,-2.25518 4.246689,-3.8365 5.073589,-4.43952 0.82688,-0.60297 6.43056,-3.30353 9.80767,-3.15898 5.3978,-1.69381 5.02802,-2.91319 7.02386,-4.45141 l 0.20774,-0.24805 c 0,0 -0.22924,-0.15943 2.23862,-0.73328 0.46863,-0.10895 0.91495,-0.15538 1.33894,-0.15038 0.029,0 0.057,0.004 0.0858,0.005 z m 0,44.639653 v 12.7589 c 14.52755,14.52756 33.31233,32.89169 45.29285,52.39267 1.42697,-1.75448 2.54301,-3.56629 2.3275,-4.54752 -0.28059,-1.27749 -0.6944,-3.42233 -3.19619,-5.08548 -3.37092,-2.24103 -7.5385,-0.91981 -4.82554,-2.49494 4.53803,-2.63471 7.14056,-7.61478 8.04499,-15.39441 1.2364,-10.63525 -10.80396,-20.61397 -19.70216,-22.77897 -12.67827,-3.86783 -27.13943,-2.09135 -27.13943,-2.09135 0,0 1.90004,-1.0792 2.67426,-2.21381 2.07637,-3.04288 0.30607,-10.43343 -3.47628,-10.54509 z M 86.75021,71.258478 c 4.956903,-1.818629 10.644285,-3.197894 19.16989,-4.75888 8.82786,-1.616329 13.736,-2.717213 17.32917,-4.131533 V 45.868297 h 3.99873 c 2.51715,0 4.54339,-2.026245 4.54339,-4.54339 v -2.138371 c -1e-5,-2.517145 -2.02624,-4.543393 -4.54339,-4.543393 h -8.66562 c -2.78381,3.105285 -4.18747,7.266596 -4.67052,13.848768 l -0.29714,4.053498 -1.02733,-2.21692 c -2.60696,-5.627237 -2.72815,-10.971961 -0.37258,-15.685346 H 82.752004 c -2.51714,0 -4.543391,2.026248 -4.543391,4.543393 v 2.138371 c 0,2.517145 2.04801,4.213124 4.543391,4.54339 h 3.998206 z m 42.2646,132.605852 h 5.2e-4 c 12.62525,-0.0842 23.73429,4.21478 34.79426,4.91908 3.15938,0.20119 6.31426,0.10753 9.36945,-0.20102 a 7.0119131,7.0119131 0 0 0 -0.008,0.1695 7.0119131,7.0119131 0 0 0 2.57917,5.42706 c 0.032,0.6625 0.0498,1.32491 0.0506,1.98644 0,2.52035 -0.13471,4.92637 -0.39223,7.22747 a 7.0119131,7.0119131 0 0 0 -1.23558,-0.11628 7.0119131,7.0119131 0 0 0 -7.01198,7.01198 7.0119131,7.0119131 0 0 0 4.84054,6.66213 c -1.85532,4.43598 -4.34907,8.30243 -7.39335,11.65148 a 7.0119131,7.0119131 0 0 0 -1.95492,-0.28318 7.0119131,7.0119131 0 0 0 -7.01198,7.01249 7.0119131,7.0119131 0 0 0 0.0465,0.73432 c -1.65436,1.0599 -3.39209,2.03634 -5.20846,2.93212 a 7.0119131,7.0119131 0 0 0 0.90433,-3.43649 7.0119131,7.0119131 0 0 0 -7.01197,-7.01196 7.0119131,7.0119131 0 0 0 -7.01146,7.01196 7.0119131,7.0119131 0 0 0 5.07204,6.7324 c -10.38886,3.49811 -22.57637,5.03142 -35.64227,5.14646 a 7.0119131,7.0119131 0 0 0 -6.74377,-5.09735 7.0119131,7.0119131 0 0 0 -6.61045,4.69892 c -18.149321,-1.30278 -33.952113,-5.8756 -44.602963,-15.39182 a 7.0119131,7.0119131 0 0 0 3.132111,-5.8353 7.0119131,7.0119131 0 0 0 -7.011976,-7.01146 7.0119131,7.0119131 0 0 0 -4.79919,1.90583 c -1.824659,-3.37078 -3.235336,-7.11593 -4.183724,-11.26391 a 7.0119131,7.0119131 0 0 0 4.850866,1.96009 7.0119131,7.0119131 0 0 0 7.011976,-7.01146 7.0119131,7.0119131 0 0 0 -7.011976,-7.0125 7.0119131,7.0119131 0 0 0 -6.090066,3.54708 c -0.109413,-1.54288 -0.1695,-3.1272 -0.1695,-4.76302 0.0034,-3.62438 0.505333,-7.28846 1.415418,-10.96367 1.247079,0.0324 2.554597,0.11621 3.934126,0.262 a 7.0119131,7.0119131 0 0 0 6.921024,5.90765 7.0119131,7.0119131 0 0 0 6.029608,-3.44889 c 8.364143,1.92545 18.051065,4.18809 28.187943,3.92224 a 7.0119131,7.0119131 0 0 0 5.599142,2.80242 7.0119131,7.0119131 0 0 0 6.409944,-4.18063 c 5.617332,-1.04006 11.258877,-2.49263 16.787607,-3.77289 a 7.0119131,7.0119131 0 0 0 -0.65888,2.94504 7.0119131,7.0119131 0 0 0 7.01146,7.01145 7.0119131,7.0119131 0 0 0 7.01198,-7.01145 7.0119131,7.0119131 0 0 0 -2.24483,-5.13147 c 1.86233,-0.26776 3.69899,-0.46634 5.50354,-0.56534 0.85543,-0.047 1.70406,-0.0715 2.54558,-0.0775 z m 19.86442,7.62176 a 7.0119131,7.0119131 0 0 0 -7.01197,7.01249 7.0119131,7.0119131 0 0 0 7.01197,7.01146 7.0119131,7.0119131 0 0 0 7.0125,-7.01146 7.0119131,7.0119131 0 0 0 -7.0125,-7.01249 z m -82.389798,10.28774 a 7.0119131,7.0119131 0 0 0 -7.011458,7.01249 7.0119131,7.0119131 0 0 0 7.011458,7.01146 7.0119131,7.0119131 0 0 0 7.011974,-7.01146 7.0119131,7.0119131 0 0 0 -7.011974,-7.01249 z m 28.298013,2.23398 a 7.0119131,7.0119131 0 0 0 -7.011975,7.01197 7.0119131,7.0119131 0 0 0 7.011975,7.01146 7.0119131,7.0119131 0 0 0 7.011975,-7.01146 7.0119131,7.0119131 0 0 0 -7.011975,-7.01197 z m 37.814745,2.7745 a 7.0119131,7.0119131 0 0 0 -7.01197,7.01249 7.0119131,7.0119131 0 0 0 7.01197,7.01146 7.0119131,7.0119131 0 0 0 7.01146,-7.01146 7.0119131,7.0119131 0 0 0 -7.01146,-7.01249 z m -15.27658,10.7487 a 7.0119131,7.0119131 0 0 0 -7.01198,7.01198 7.0119131,7.0119131 0 0 0 7.01198,7.01146 7.0119131,7.0119131 0 0 0 7.01197,-7.01146 7.0119131,7.0119131 0 0 0 -7.01197,-7.01198 z m -38.314978,2.27376 a 7.0119131,7.0119131 0 0 0 -7.011977,7.01198 7.0119131,7.0119131 0 0 0 7.011977,7.01198 7.0119131,7.0119131 0 0 0 7.011974,-7.01198 7.0119131,7.0119131 0 0 0 -7.011974,-7.01198 z"
       id="path817"
       inkscape:connector-curvature="0" />
  </g>
</svg>
